<svg width="59" height="42" viewBox="0 0 59 42" fill="none" xmlns="http://www.w3.org/2000/svg">
<g clip-path="url(#clip0_16_529)">
<path d="M8.95874 20.4732C8.95874 19.9458 9.21952 19.6825 9.74108 19.6833H11.9772C12.4996 19.6833 12.7607 19.9466 12.7607 20.4732V21.6211H11.8591V20.4601H9.86034V22.5088H12.0476C12.5739 22.5088 12.8371 22.7697 12.8371 23.2916V25.7735C12.8371 26.277 12.583 26.5288 12.075 26.5288C11.7079 26.5223 11.3416 26.4944 10.9778 26.4452C10.6105 26.3987 10.242 26.3498 9.87465 26.2985V26.487H8.95874V20.4732ZM11.9402 25.6816V23.2343H9.86034V25.6398L11.9402 25.6816Z" fill="#53A211"/>
<path d="M4.98981 25.6673H6.1824V20.5007H4.98981V19.6833H6.1824V17.5641H7.09831V19.6833H7.91524V20.5007H7.09354V25.6959C7.09354 26.2217 6.83236 26.485 6.31001 26.4858H4.98981V25.6673Z" fill="#53A211"/>
<path d="M0 24.4657H0.903986V25.709H2.90039V23.2486H0.314845L0 22.9205V20.4732C0 19.9458 0.261178 19.6825 0.783534 19.6833H3.01965C3.54121 19.6833 3.80199 19.9466 3.80199 20.4732V25.6959C3.80199 26.2217 3.54121 26.485 3.01965 26.4858H0.784727C0.262371 26.4858 0.00119285 26.2225 0.00119285 25.6959L0 24.4657ZM2.90039 22.5076V20.4589H0.903986V22.5076H2.90039Z" fill="#53A211"/>
<path d="M37.8339 26.2114C37.8339 26.738 37.5731 27.0013 37.0515 27.0013H34.8154C34.2931 27.0013 34.0323 26.738 34.0331 26.2114V20.9887C34.0331 20.4613 34.2939 20.198 34.8154 20.1988H37.0515C37.5731 20.1988 37.8339 20.4621 37.8339 20.9887V23.436L37.5166 23.7689H34.9347V26.2293H36.9323V24.98H37.8339V26.2114ZM36.9323 23.0231V20.9744H34.9347V23.0231H36.9323Z" fill="#53A211"/>
<path d="M43.1731 26.2114C43.1731 26.738 42.9123 27.0013 42.3907 27.0013H40.1546C39.6323 27.0013 39.3711 26.738 39.3711 26.2114V20.9887C39.3711 20.4613 39.6323 20.198 40.1546 20.1988H42.3907C42.9123 20.1988 43.1731 20.4621 43.1731 20.9887V23.436L42.8582 23.7689H40.2727V26.2293H42.2715V24.98H43.1731V26.2114ZM42.2715 23.0231V20.9744H40.2727V23.0231H42.2715Z" fill="#53A211"/>
<path d="M48.6161 25.5396C48.6219 25.7326 48.5885 25.9248 48.5178 26.1045C48.447 26.2842 48.3405 26.4476 48.2046 26.5848C48.07 26.7217 47.9085 26.8293 47.7304 26.901C47.5523 26.9726 47.3613 27.0068 47.1695 27.0013H45.6394V29.581H44.7103V20.1987H45.6394V20.3873L46.7437 20.2477C47.1072 20.1948 47.4736 20.1641 47.8409 20.1558C48.3585 20.1558 48.6169 20.4099 48.6161 20.9183V25.5396ZM47.687 25.4V21.0304L45.6394 21.0865V26.1827H46.925C47.433 26.1827 47.687 25.9218 47.687 25.4Z" fill="#53A211"/>
<path d="M53.9064 26.2114C53.9064 26.738 53.6456 27.0013 53.1241 27.0013H50.888C50.3656 27.0013 50.1044 26.738 50.1044 26.2114V20.9887C50.1044 20.4613 50.3656 20.198 50.888 20.1988H53.1241C53.6448 20.1988 53.9056 20.4621 53.9064 20.9887V23.436L53.5916 23.7689H51.006V26.2293H53.0048V24.98H53.9064V26.2114ZM53.0048 23.0231V20.9744H51.006V23.0231H53.0048Z" fill="#53A211"/>
<path d="M59 22.436H58.0853V21.0304L56.3727 21.0865V27.0013H55.4437V20.1999H56.3727V20.3885C56.6804 20.3415 56.9901 20.2926 57.3017 20.2417C57.6094 20.1911 57.9202 20.1628 58.2319 20.157C58.7432 20.157 58.9992 20.4111 59 20.9194V22.436Z" fill="#53A211"/>
<path d="M33.271 27.0013L26.5626 13.0084L32.6675 0.155118V0H30.0629L24.4792 11.9751V14.1754L30.633 27.0013H33.271Z" fill="white"/>
<path d="M13.5634 25.0814C13.5519 25.3354 13.5934 25.5891 13.6851 25.8262C13.7769 26.0634 13.9169 26.2788 14.0964 26.4589C14.2758 26.639 14.4907 26.7798 14.7275 26.8724C14.9642 26.9649 15.2176 27.0072 15.4715 26.9965H22.5591C22.8141 27.0092 23.069 26.9685 23.3073 26.8769C23.5457 26.7852 23.7622 26.6447 23.943 26.4643C24.1238 26.284 24.265 26.0678 24.3573 25.8296C24.4496 25.5914 24.4912 25.3366 24.4792 25.0814V1.9151C24.4911 1.66044 24.4497 1.40611 24.3578 1.16837C24.2658 0.930623 24.1252 0.714712 23.945 0.534447C23.7648 0.354182 23.5491 0.213533 23.3114 0.121501C23.0738 0.0294692 22.8196 -0.01192 22.5651 -1.63205e-05H15.4775C15.2236 -0.0106988 14.9702 0.031576 14.7334 0.124119C14.4967 0.216662 14.2818 0.357454 14.1023 0.53755C13.9229 0.717646 13.7829 0.93311 13.6911 1.17026C13.5993 1.40741 13.5579 1.66106 13.5694 1.9151V8.19499H15.9784V2.12272H22.0821V24.8785H15.9784V15.5452H18.8573V13.475H13.5634V25.0814Z" fill="white"/>
<path d="M16.2193 24.6232H16.7977V18.0772L16.2193 18.3445V24.6232Z" fill="white"/>
<path d="M18.2431 24.6232H18.8215V17.1393L18.2431 17.4066V24.6232Z" fill="white"/>
<path d="M17.2306 24.6232H17.809V17.6083L17.2306 17.8756V24.6232Z" fill="white"/>
<path d="M19.2556 24.6232H19.8328V16.6704L19.2556 16.9389V24.6232Z" fill="white"/>
<path d="M20.267 24.6232H20.8454V16.2015L20.267 16.47V24.6232Z" fill="white"/>
<path d="M21.2794 24.6232H21.8578V15.7337L21.2794 16.001V24.6232Z" fill="white"/>
<path d="M21.3928 19.9768V20.4267H22.348V19.9768H21.3928Z" fill="white"/>
<path d="M21.5812 20.5591C21.8334 20.5591 22.0379 20.3887 22.0379 20.1785C22.0379 19.9682 21.8334 19.7978 21.5812 19.7978C21.3289 19.7978 21.1244 19.9682 21.1244 20.1785C21.1244 20.3887 21.3289 20.5591 21.5812 20.5591Z" fill="white"/>
<path d="M14.614 27.3736L15.5013 27.3652L7.245 39.7389L6.35175 39.4799L14.614 27.3736Z" fill="url(#paint0_linear_16_529)"/>
<path d="M17.7184 27.3413L18.6056 27.3318L10.3732 40.6433L9.47992 40.3844L17.7184 27.3413Z" fill="url(#paint1_linear_16_529)"/>
<path d="M16.1668 27.3581L17.0541 27.3485L8.80967 40.1911L7.91522 39.9322L16.1668 27.3581Z" fill="url(#paint2_linear_16_529)"/>
<path d="M19.2711 27.3246L20.1584 27.3163L11.9379 41.0955L11.0446 40.8366L19.2711 27.3246Z" fill="url(#paint3_linear_16_529)"/>
<path d="M20.8239 27.3091L21.7112 27.2996L13.5025 41.5478L12.6081 41.2889L20.8239 27.3091Z" fill="url(#paint4_linear_16_529)"/>
<path d="M22.3766 27.2924L23.2639 27.2829L15.066 42L14.1728 41.7411L22.3766 27.2924Z" fill="url(#paint5_linear_16_529)"/>
<path d="M32.9132 27.1815L32.0259 27.191L23.7696 39.5635L24.6509 39.2866L32.9132 27.1815Z" fill="url(#paint6_linear_16_529)"/>
<path d="M29.8077 27.2137L28.9204 27.2232L20.6879 40.5336L21.5681 40.2567L29.8077 27.2137Z" fill="url(#paint7_linear_16_529)"/>
<path d="M31.3604 27.1982L30.4732 27.2065L22.2288 40.0491L23.1101 39.7723L31.3604 27.1982Z" fill="url(#paint8_linear_16_529)"/>
<path d="M28.2549 27.2304L27.3676 27.2399L19.1471 41.0192L20.0272 40.7424L28.2549 27.2304Z" fill="url(#paint9_linear_16_529)"/>
<path d="M26.7022 27.2471L25.8149 27.2566L17.6063 41.5036L18.4864 41.2268L26.7022 27.2471Z" fill="url(#paint10_linear_16_529)"/>
<path d="M25.1494 27.2626L24.2621 27.2721L16.0654 41.9893L16.9456 41.7124L25.1494 27.2626Z" fill="url(#paint11_linear_16_529)"/>
</g>
<defs>
<linearGradient id="paint0_linear_16_529" x1="6.35175" y1="33.552" x2="15.5013" y2="33.552" gradientUnits="userSpaceOnUse">
<stop offset="0.11" stop-color="#2D2D2D"/>
<stop offset="1" stop-color="white"/>
</linearGradient>
<linearGradient id="paint1_linear_16_529" x1="9.47992" y1="33.9875" x2="18.6056" y2="33.9875" gradientUnits="userSpaceOnUse">
<stop offset="0.11" stop-color="#2D2D2D"/>
<stop offset="1" stop-color="white"/>
</linearGradient>
<linearGradient id="paint2_linear_16_529" x1="7.91522" y1="33.7692" x2="17.0541" y2="33.7692" gradientUnits="userSpaceOnUse">
<stop offset="0.11" stop-color="#2D2D2D"/>
<stop offset="1" stop-color="white"/>
</linearGradient>
<linearGradient id="paint3_linear_16_529" x1="11.0446" y1="34.2059" x2="20.1584" y2="34.2059" gradientUnits="userSpaceOnUse">
<stop offset="0.11" stop-color="#2D2D2D"/>
<stop offset="1" stop-color="white"/>
</linearGradient>
<linearGradient id="paint4_linear_16_529" x1="12.6081" y1="34.4231" x2="21.7112" y2="34.4231" gradientUnits="userSpaceOnUse">
<stop offset="0.11" stop-color="#2D2D2D"/>
<stop offset="1" stop-color="white"/>
</linearGradient>
<linearGradient id="paint5_linear_16_529" x1="14.1728" y1="34.6414" x2="23.2639" y2="34.6414" gradientUnits="userSpaceOnUse">
<stop offset="0.11" stop-color="#2D2D2D"/>
<stop offset="1" stop-color="white"/>
</linearGradient>
<linearGradient id="paint6_linear_16_529" x1="23.7696" y1="33.3731" x2="32.9132" y2="33.3731" gradientUnits="userSpaceOnUse">
<stop offset="0.11" stop-color="#2D2D2D"/>
<stop offset="1" stop-color="white"/>
</linearGradient>
<linearGradient id="paint7_linear_16_529" x1="20.6879" y1="33.8742" x2="29.8077" y2="33.8742" gradientUnits="userSpaceOnUse">
<stop offset="0.11" stop-color="#2D2D2D"/>
<stop offset="1" stop-color="white"/>
</linearGradient>
<linearGradient id="paint8_linear_16_529" x1="22.2288" y1="33.6236" x2="31.3604" y2="33.6236" gradientUnits="userSpaceOnUse">
<stop offset="0.11" stop-color="#2D2D2D"/>
<stop offset="1" stop-color="white"/>
</linearGradient>
<linearGradient id="paint9_linear_16_529" x1="19.1471" y1="34.1248" x2="28.2549" y2="34.1248" gradientUnits="userSpaceOnUse">
<stop offset="0.11" stop-color="#2D2D2D"/>
<stop offset="1" stop-color="white"/>
</linearGradient>
<linearGradient id="paint10_linear_16_529" x1="17.6063" y1="34.3753" x2="26.7022" y2="34.3753" gradientUnits="userSpaceOnUse">
<stop offset="0.11" stop-color="#2D2D2D"/>
<stop offset="1" stop-color="white"/>
</linearGradient>
<linearGradient id="paint11_linear_16_529" x1="16.0654" y1="34.6259" x2="25.1494" y2="34.6259" gradientUnits="userSpaceOnUse">
<stop offset="0.11" stop-color="#2D2D2D"/>
<stop offset="1" stop-color="white"/>
</linearGradient>
<clipPath id="clip0_16_529">
<rect width="59" height="42" fill="white"/>
</clipPath>
</defs>
</svg>
